<svg width="100" height="100" viewBox="0 0 100 100" fill="none" xmlns="http://www.w3.org/2000/svg">
<circle cx="50" cy="50" r="50" fill="white" fill-opacity="0.44"/>
<path d="M76.6666 50C76.6666 35.272 64.728 23.3334 50 23.3334C35.272 23.3334 23.3333 35.272 23.3333 50C23.3333 64.728 35.272 76.6667 50 76.6667C64.728 76.6667 76.6666 64.728 76.6666 50ZM38 41.3174C38.9253 40.2987 40.44 39.3334 42.6666 39.3334C45.7386 39.3334 47.7173 41.4454 48.4133 43.7627C49.088 46.0214 48.68 48.816 46.76 50.744C46.0941 51.3842 45.3877 51.981 44.6453 52.5307L44.5386 52.6134C43.792 53.1894 43.1253 53.712 42.5386 54.2934C41.8586 54.976 41.3013 55.72 40.9786 56.6667H46.6666C47.1971 56.6667 47.7058 56.8774 48.0809 57.2525C48.4559 57.6276 48.6666 58.1363 48.6666 58.6667C48.6666 59.1971 48.4559 59.7058 48.0809 60.0809C47.7058 60.456 47.1971 60.6667 46.6666 60.6667H38.6666C38.1362 60.6667 37.6275 60.456 37.2524 60.0809C36.8774 59.7058 36.6666 59.1971 36.6666 58.6667C36.6666 55.3414 38.064 53.112 39.7173 51.464C40.5066 50.6747 41.3653 50.0107 42.0906 49.448L42.0986 49.4427C42.8613 48.8534 43.4533 48.3947 43.9253 47.9227C44.6506 47.192 44.904 45.9894 44.5813 44.9094C44.2746 43.8934 43.5946 43.3334 42.6666 43.3334C41.7253 43.3334 41.24 43.6987 40.96 44.008C40.7962 44.1888 40.6629 44.3951 40.5653 44.6187V44.6267C40.4019 45.1317 40.0447 45.5511 39.5721 45.7926C39.0995 46.0342 38.5503 46.0781 38.0453 45.9147C37.5403 45.7513 37.121 45.3941 36.8794 44.9215C36.6379 44.4489 36.5939 43.8997 36.7573 43.3947L36.8506 43.1387C37.1246 42.4698 37.5126 41.8536 37.9973 41.3174H38ZM53.3333 39.3334C53.8637 39.3334 54.3725 39.5441 54.7475 39.9192C55.1226 40.2942 55.3333 40.8029 55.3333 41.3334V48.6667H59.3333V41.3334C59.3333 40.8029 59.544 40.2942 59.9191 39.9192C60.2942 39.5441 60.8029 39.3334 61.3333 39.3334C61.8637 39.3334 62.3725 39.5441 62.7475 39.9192C63.1226 40.2942 63.3333 40.8029 63.3333 41.3334V58.5867C63.3333 59.1171 63.1226 59.6259 62.7475 60.0009C62.3725 60.376 61.8637 60.5867 61.3333 60.5867C60.8029 60.5867 60.2942 60.376 59.9191 60.0009C59.544 59.6259 59.3333 59.1171 59.3333 58.5867V52.6667H53.3333C52.8029 52.6667 52.2942 52.456 51.9191 52.0809C51.544 51.7058 51.3333 51.1971 51.3333 50.6667V41.3334C51.3333 40.8029 51.544 40.2942 51.9191 39.9192C52.2942 39.5441 52.8029 39.3334 53.3333 39.3334Z" fill="white"/>
</svg>
