<svg width="100" height="100" viewBox="0 0 100 100" fill="none" xmlns="http://www.w3.org/2000/svg">
<circle cx="50" cy="50" r="50" fill="white" fill-opacity="0.44"/>
<g clip-path="url(#clip0_406_2)">
<path d="M71 67.5H65.75C65.276 67.5 64.8659 67.3268 64.5195 66.9805C64.1732 66.6341 64 66.224 64 65.75V48.25C64 47.776 64.1732 47.3659 64.5195 47.0195C64.8659 46.6732 65.276 46.5 65.75 46.5H67.5C67.5 41.1042 65.9961 36.8385 62.9883 33.7031C59.9805 30.5677 55.651 29 50 29C44.349 29 40.0195 30.5677 37.0117 33.7031C34.0039 36.8385 32.5 41.1042 32.5 46.5H34.25C34.724 46.5 35.1341 46.6732 35.4805 47.0195C35.8268 47.3659 36 47.776 36 48.25V65.75C36 66.224 35.8268 66.6341 35.4805 66.9805C35.1341 67.3268 34.724 67.5 34.25 67.5H32.5C32.5 69.4323 33.1836 71.082 34.5508 72.4492C35.918 73.8164 37.5677 74.5 39.5 74.5H43C43 73.5156 43.3372 72.6862 44.0117 72.0117C44.6862 71.3372 45.5156 71 46.5 71H50C50.9844 71 51.8138 71.3372 52.4883 72.0117C53.1628 72.6862 53.5 73.5065 53.5 74.4727C53.5 75.4388 53.1628 76.2682 52.4883 76.9609C51.8138 77.6536 50.9844 78 50 78H39.5C36.5833 78 34.1042 76.9792 32.0625 74.9375C30.0208 72.8958 29 70.4167 29 67.5C27.0677 67.5 25.418 66.4792 24.0508 64.4375C22.6836 62.3958 22 59.9167 22 57C22 55.1042 22.319 53.3542 22.957 51.75C23.5951 50.1458 24.4427 48.888 25.5 47.9766V46.5C25.5 43.1823 26.1471 40.0104 27.4414 36.9844C28.7357 33.9583 30.4766 31.3516 32.6641 29.1641C34.8516 26.9766 37.4583 25.2357 40.4844 23.9414C43.5104 22.6471 46.6823 22 50 22C53.3177 22 56.4896 22.6471 59.5156 23.9414C62.5417 25.2357 65.1484 26.9766 67.3359 29.1641C69.5234 31.3516 71.2643 33.9583 72.5586 36.9844C73.8529 40.0104 74.5 43.1823 74.5 46.5V47.9766C75.5573 48.888 76.4049 50.1458 77.043 51.75C77.681 53.3542 78 55.1042 78 57C78 59.9167 77.3164 62.3958 75.9492 64.4375C74.582 66.4792 72.9323 67.5 71 67.5Z" fill="white"/>
</g>
<defs>
<clipPath id="clip0_406_2">
<rect width="56" height="56" fill="white" transform="translate(22 22)"/>
</clipPath>
</defs>
</svg>
