<svg width="40" height="40" viewBox="0 0 40 40" fill="none" xmlns="http://www.w3.org/2000/svg">
<path d="M34.9117 13.8417C34.8949 12.5794 34.6586 11.3297 34.2134 10.1484C33.8273 9.15197 33.2376 8.24705 32.482 7.49144C31.7264 6.73582 30.8215 6.14614 29.8251 5.76005C28.6589 5.32231 27.427 5.08562 26.1817 5.06005C24.5784 4.98838 24.07 4.96838 20 4.96838C15.93 4.96838 15.4084 4.96838 13.8167 5.06005C12.572 5.08581 11.3406 5.3225 10.175 5.76005C9.17848 6.14587 8.27342 6.73546 7.51777 7.49111C6.76212 8.24675 6.17253 9.15181 5.78672 10.1484C5.3481 11.3136 5.11192 12.5452 5.08838 13.7901C5.01672 15.3951 4.99505 15.9034 4.99505 19.9734C4.99505 24.0434 4.99505 24.5634 5.08838 26.1567C5.11338 27.4034 5.34838 28.6334 5.78672 29.8017C6.17318 30.798 6.76321 31.7027 7.51911 32.458C8.27501 33.2133 9.18015 33.8027 10.1767 34.1884C11.3391 34.6437 12.5707 34.8974 13.8184 34.9384C15.4234 35.01 15.9317 35.0317 20.0017 35.0317C24.0717 35.0317 24.5934 35.0317 26.1851 34.9384C27.4303 34.9139 28.6623 34.6777 29.8284 34.2401C30.8245 33.8535 31.7292 33.2637 32.4848 32.5081C33.2403 31.7526 33.8302 30.8479 34.2167 29.8517C34.6551 28.6851 34.89 27.4551 34.915 26.2067C34.9867 24.6034 35.0084 24.0951 35.0084 20.0234C35.005 15.9534 35.0051 15.4367 34.9117 13.8417ZM19.9901 27.67C15.7334 27.67 12.285 24.2217 12.285 19.9651C12.285 15.7084 15.7334 12.2601 19.9901 12.2601C22.0335 12.2601 23.9933 13.0718 25.4383 14.5168C26.8833 15.9618 27.6951 17.9216 27.6951 19.9651C27.6951 22.0085 26.8833 23.9683 25.4383 25.4133C23.9933 26.8583 22.0335 27.67 19.9901 27.67ZM28.0017 13.7717C27.0067 13.7717 26.205 12.9684 26.205 11.9751C26.205 11.7392 26.2515 11.5057 26.3417 11.2878C26.432 11.0699 26.5643 10.872 26.731 10.7052C26.8978 10.5384 27.0958 10.4062 27.3136 10.3159C27.5315 10.2257 27.7651 10.1792 28.0009 10.1792C28.2367 10.1792 28.4702 10.2257 28.6881 10.3159C28.906 10.4062 29.104 10.5384 29.2707 10.7052C29.4375 10.872 29.5698 11.0699 29.66 11.2878C29.7503 11.5057 29.7967 11.7392 29.7967 11.9751C29.7967 12.9684 28.9934 13.7717 28.0017 13.7717Z" fill="white"/>
<path d="M19.9901 24.97C22.7543 24.97 24.9951 22.7291 24.9951 19.965C24.9951 17.2008 22.7543 14.96 19.9901 14.96C17.2259 14.96 14.9851 17.2008 14.9851 19.965C14.9851 22.7291 17.2259 24.97 19.9901 24.97Z" fill="white"/>
</svg>
