<svg width="20" height="38" viewBox="0 0 20 38" fill="none" xmlns="http://www.w3.org/2000/svg">
<path d="M16 18H4.22C4.5917 15.5247 5.47558 13.1541 6.81518 11.0397C8.15478 8.92523 9.92065 7.11343 12 5.72L15.58 3.32L13.4 0L9.8 2.4C6.78656 4.40815 4.31542 7.12912 2.60587 10.3214C0.896313 13.5138 0.00121417 17.0787 0 20.7V34C0 35.0609 0.421428 36.0783 1.17157 36.8284C1.92172 37.5786 2.93913 38 4 38H16C17.0609 38 18.0783 37.5786 18.8284 36.8284C19.5786 36.0783 20 35.0609 20 34V22C20 20.9391 19.5786 19.9217 18.8284 19.1716C18.0783 18.4214 17.0609 18 16 18Z" fill="black"/>
</svg>
