<svg width="100" height="100" viewBox="0 0 100 100" fill="none" xmlns="http://www.w3.org/2000/svg">
<circle cx="50" cy="50" r="50" fill="white" fill-opacity="0.44"/>
<path d="M72.1813 28.6187L50.9437 21.3812C50.6875 21.2937 50.3438 21.25 50 21.25C49.6562 21.25 49.3125 21.2937 49.0562 21.3812L27.8188 28.6187C27.3 28.7937 26.875 29.3938 26.875 29.9437V60.0937C26.875 60.6437 27.2313 61.3687 27.6625 61.7125L49.2062 78.5C49.425 78.6687 49.7062 78.7562 49.9937 78.7562C50.2812 78.7562 50.5688 78.6687 50.7812 78.5L72.325 61.7125C72.7563 61.375 73.1125 60.65 73.1125 60.0937V29.9437C73.125 29.3938 72.7 28.8 72.1813 28.6187ZM61.4062 39.2937L48.1187 57.5875C48.0253 57.7154 47.9031 57.8194 47.7619 57.8911C47.6207 57.9628 47.4646 58.0001 47.3062 58.0001C47.1479 58.0001 46.9918 57.9628 46.8506 57.8911C46.7094 57.8194 46.5872 57.7154 46.4937 57.5875L38.5938 46.7125C38.3562 46.3812 38.5938 45.9187 39 45.9187H42.45C42.7688 45.9187 43.075 46.075 43.2625 46.3312L47.3062 51.8937L56.7375 38.9062C56.925 38.65 57.225 38.4937 57.55 38.4937H61C61.4062 38.5 61.6437 38.9625 61.4062 39.2937Z" fill="white"/>
</svg>
