<svg width="32" height="32" viewBox="0 0 32 32" fill="none" xmlns="http://www.w3.org/2000/svg">
<path d="M31.524 6.91936C30.4106 7.41269 29.2146 7.74602 27.9573 7.89669C29.2546 7.12041 30.2252 5.89865 30.688 4.45936C29.4691 5.18334 28.1351 5.69295 26.744 5.96602C25.8085 4.96718 24.5694 4.30513 23.2191 4.08266C21.8688 3.86019 20.4828 4.08975 19.2763 4.73569C18.0698 5.38164 17.1103 6.40784 16.5468 7.65496C15.9833 8.90209 15.8473 10.3004 16.16 11.6327C13.6902 11.5087 11.2741 10.8668 9.06853 9.74856C6.86293 8.63037 4.91709 7.06091 3.3573 5.14202C2.82396 6.06202 2.5173 7.12869 2.5173 8.26469C2.5167 9.28735 2.76854 10.2943 3.25047 11.1963C3.7324 12.0983 4.42951 12.8674 5.27996 13.4354C4.29367 13.404 3.32913 13.1375 2.46663 12.658V12.738C2.46653 14.1723 2.96268 15.5625 3.87088 16.6727C4.77908 17.7828 6.04339 18.5446 7.4493 18.8287C6.53434 19.0763 5.57508 19.1128 4.64396 18.9354C5.04063 20.1695 5.81329 21.2487 6.85379 22.0219C7.89428 22.7951 9.15052 23.2236 10.4466 23.2474C8.24641 24.9746 5.52915 25.9115 2.73196 25.9074C2.23647 25.9075 1.7414 25.8786 1.2493 25.8207C4.0886 27.6463 7.39375 28.6151 10.7693 28.6114C22.196 28.6114 28.4426 19.1474 28.4426 10.9394C28.4426 10.6727 28.436 10.4034 28.424 10.1367C29.639 9.25799 30.6878 8.16989 31.5213 6.92336L31.524 6.91936Z" fill="white"/>
</svg>
